
      <svg viewBox="0 0 21 19" width="420" height="380">

        <rect width="21" height="19" x="0" y="0" fill="black"/>
        <g>









                <g transform="translate(9, 0)">
                  <text x="0"  y="0" fill="#ef5350"  transform="scale(0.07) translate(2, 12)">A</text>
                </g>
              





















                <g transform="translate(9, 1)">
                  <text x="0"  y="0" fill="#ef5350"  transform="scale(0.07) translate(2, 12)">A</text>
                </g>
              













<rect width="1" height="1" x="2" y="2" fill="#0095a8" />
<rect width="1" height="1" x="3" y="2" fill="#0095a8" />
<rect width="1" height="1" x="4" y="2" fill="#0095a8" />
<rect width="1" height="1" x="5" y="2" fill="#0095a8" />
<rect width="1" height="1" x="6" y="2" fill="#0095a8" />
<rect width="1" height="1" x="7" y="2" fill="#0095a8" />
<rect width="1" height="1" x="8" y="2" fill="#0095a8" />
<rect width="1" height="1" x="9" y="2" fill="white" />
<rect width="1" height="1" x="10" y="2" fill="#0095a8" />
<rect width="1" height="1" x="11" y="2" fill="#0095a8" />
<rect width="1" height="1" x="12" y="2" fill="#0095a8" />
<rect width="1" height="1" x="13" y="2" fill="#0095a8" />
<rect width="1" height="1" x="14" y="2" fill="#0095a8" />
<rect width="1" height="1" x="15" y="2" fill="#0095a8" />
<rect width="1" height="1" x="16" y="2" fill="#0095a8" />
<rect width="1" height="1" x="17" y="2" fill="#0095a8" />
<rect width="1" height="1" x="18" y="2" fill="#0095a8" />




<rect width="1" height="1" x="2" y="3" fill="#0095a8" />
<rect width="1" height="1" x="3" y="3" fill="#0095a8" />
<rect width="1" height="1" x="4" y="3" fill="#0095a8" />
<rect width="1" height="1" x="5" y="3" fill="#0095a8" />
<rect width="1" height="1" x="6" y="3" fill="#0095a8" />
<rect width="1" height="1" x="7" y="3" fill="#0095a8" />
<rect width="1" height="1" x="8" y="3" fill="#0095a8" />
<rect width="1" height="1" x="9" y="3" fill="white" />
<rect width="1" height="1" x="10" y="3" fill="white" />
<rect width="1" height="1" x="11" y="3" fill="white" />
<rect width="1" height="1" x="12" y="3" fill="white" />
<rect width="1" height="1" x="13" y="3" fill="white" />
<rect width="1" height="1" x="14" y="3" fill="white" />
<rect width="1" height="1" x="15" y="3" fill="white" />
<rect width="1" height="1" x="16" y="3" fill="white" />
<rect width="1" height="1" x="17" y="3" fill="white" />
<rect width="1" height="1" x="18" y="3" fill="#0095a8" />




<rect width="1" height="1" x="2" y="4" fill="#0095a8" />
<rect width="1" height="1" x="3" y="4" fill="#0095a8" />
<rect width="1" height="1" x="4" y="4" fill="#0095a8" />
<rect width="1" height="1" x="5" y="4" fill="#0095a8" />
<rect width="1" height="1" x="6" y="4" fill="#0095a8" />
<rect width="1" height="1" x="7" y="4" fill="#0095a8" />
<rect width="1" height="1" x="8" y="4" fill="#0095a8" />
<rect width="1" height="1" x="9" y="4" fill="white" />
<rect width="1" height="1" x="10" y="4" fill="#0095a8" />
<rect width="1" height="1" x="11" y="4" fill="#0095a8" />
<rect width="1" height="1" x="12" y="4" fill="#0095a8" />
<rect width="1" height="1" x="13" y="4" fill="#0095a8" />
<rect width="1" height="1" x="14" y="4" fill="#0095a8" />
<rect width="1" height="1" x="15" y="4" fill="#0095a8" />
<rect width="1" height="1" x="16" y="4" fill="#0095a8" />
<rect width="1" height="1" x="17" y="4" fill="white" />
<rect width="1" height="1" x="18" y="4" fill="#0095a8" />




<rect width="1" height="1" x="2" y="5" fill="#0095a8" />
<rect width="1" height="1" x="3" y="5" fill="#0095a8" />
<rect width="1" height="1" x="4" y="5" fill="#0095a8" />
<rect width="1" height="1" x="5" y="5" fill="#0095a8" />
<rect width="1" height="1" x="6" y="5" fill="#0095a8" />
<rect width="1" height="1" x="7" y="5" fill="#0095a8" />
<rect width="1" height="1" x="8" y="5" fill="#0095a8" />
<rect width="1" height="1" x="9" y="5" fill="white" />
<rect width="1" height="1" x="10" y="5" fill="#0095a8" />
<rect width="1" height="1" x="11" y="5" fill="#0095a8" />
<rect width="1" height="1" x="12" y="5" fill="#0095a8" />
<rect width="1" height="1" x="13" y="5" fill="#0095a8" />
<rect width="1" height="1" x="14" y="5" fill="#0095a8" />
<rect width="1" height="1" x="15" y="5" fill="#0095a8" />
<rect width="1" height="1" x="16" y="5" fill="#0095a8" />
<rect width="1" height="1" x="17" y="5" fill="white" />
<rect width="1" height="1" x="18" y="5" fill="#0095a8" />




<rect width="1" height="1" x="2" y="6" fill="#0095a8" />
<rect width="1" height="1" x="3" y="6" fill="#0095a8" />
<rect width="1" height="1" x="4" y="6" fill="#0095a8" />
<rect width="1" height="1" x="5" y="6" fill="#0095a8" />
<rect width="1" height="1" x="6" y="6" fill="#0095a8" />
<rect width="1" height="1" x="7" y="6" fill="#0095a8" />
<rect width="1" height="1" x="8" y="6" fill="#0095a8" />
<rect width="1" height="1" x="9" y="6" fill="white" />
<rect width="1" height="1" x="10" y="6" fill="#0095a8" />
<rect width="1" height="1" x="11" y="6" fill="#0095a8" />
<rect width="1" height="1" x="12" y="6" fill="#0095a8" />
<rect width="1" height="1" x="13" y="6" fill="#0095a8" />
<rect width="1" height="1" x="14" y="6" fill="#0095a8" />
<rect width="1" height="1" x="15" y="6" fill="#0095a8" />
<rect width="1" height="1" x="16" y="6" fill="#0095a8" />
<rect width="1" height="1" x="17" y="6" fill="white" />
<rect width="1" height="1" x="18" y="6" fill="#0095a8" />




<rect width="1" height="1" x="2" y="7" fill="#0095a8" />
<rect width="1" height="1" x="3" y="7" fill="#0095a8" />
<rect width="1" height="1" x="4" y="7" fill="#0095a8" />
<rect width="1" height="1" x="5" y="7" fill="#0095a8" />
<rect width="1" height="1" x="6" y="7" fill="#0095a8" />



                <g transform="translate(9, 7)">
                  <text x="0"  y="0" fill="#9e9e9e"  transform="scale(0.07) translate(2, 12)">B</text>
                </g>
              




<rect width="1" height="1" x="14" y="7" fill="#0095a8" />
<rect width="1" height="1" x="15" y="7" fill="#0095a8" />
<rect width="1" height="1" x="16" y="7" fill="#0095a8" />
<rect width="1" height="1" x="17" y="7" fill="white" />
<rect width="1" height="1" x="18" y="7" fill="#0095a8" />



                <g transform="translate(0, 8)">
                  <text x="0"  y="0" fill="#9e9e9e"  transform="scale(0.07) translate(2, 12)">B</text>
                </g>
              

                <g transform="translate(1, 8)">
                  <text x="0"  y="0" fill="#bcaaa4"  transform="scale(0.07) translate(2, 12)">C</text>
                </g>
              
<rect width="1" height="1" x="2" y="8" fill="white" />
<rect width="1" height="1" x="3" y="8" fill="white" />
<rect width="1" height="1" x="4" y="8" fill="white" />
<rect width="1" height="1" x="5" y="8" fill="#0095a8" />
<rect width="1" height="1" x="6" y="8" fill="#0095a8" />



                <g transform="translate(9, 8)">
                  <text x="0"  y="0" fill="#bcaaa4"  transform="scale(0.07) translate(2, 12)">C</text>
                </g>
              




<rect width="1" height="1" x="14" y="8" fill="#0095a8" />
<rect width="1" height="1" x="15" y="8" fill="#0095a8" />
<rect width="1" height="1" x="16" y="8" fill="#0095a8" />
<rect width="1" height="1" x="17" y="8" fill="white" />
<rect width="1" height="1" x="18" y="8" fill="#0095a8" />




<rect width="1" height="1" x="2" y="9" fill="#0095a8" />
<rect width="1" height="1" x="3" y="9" fill="#0095a8" />
<rect width="1" height="1" x="4" y="9" fill="white" />
<rect width="1" height="1" x="5" y="9" fill="#0095a8" />
<rect width="1" height="1" x="6" y="9" fill="#0095a8" />







<rect width="1" height="1" x="14" y="9" fill="#0095a8" />
<rect width="1" height="1" x="15" y="9" fill="#0095a8" />
<rect width="1" height="1" x="16" y="9" fill="#0095a8" />
<rect width="1" height="1" x="17" y="9" fill="white" />
<rect width="1" height="1" x="18" y="9" fill="#0095a8" />




<rect width="1" height="1" x="2" y="10" fill="#0095a8" />
<rect width="1" height="1" x="3" y="10" fill="#0095a8" />
<rect width="1" height="1" x="4" y="10" fill="white" />
<rect width="1" height="1" x="5" y="10" fill="white" />
<rect width="1" height="1" x="6" y="10" fill="white" />

                <g transform="translate(7, 10)">
                  <text x="0"  y="0" fill="#f57c00"  transform="scale(0.07) translate(2, 12)">D</text>
                </g>
              

                <g transform="translate(8, 10)">
                  <text x="0"  y="0" fill="#f06292"  transform="scale(0.07) translate(2, 12)">E</text>
                </g>
              



                <g transform="translate(11, 10)">
                  <text x="0"  y="0" fill="#ff6f00"  transform="scale(0.07) translate(2, 12)">F</text>
                </g>
              


<rect width="1" height="1" x="14" y="10" fill="#0095a8" />
<rect width="1" height="1" x="15" y="10" fill="#0095a8" />
<rect width="1" height="1" x="16" y="10" fill="#0095a8" />
<rect width="1" height="1" x="17" y="10" fill="white" />
<rect width="1" height="1" x="18" y="10" fill="#0095a8" />




<rect width="1" height="1" x="2" y="11" fill="#0095a8" />
<rect width="1" height="1" x="3" y="11" fill="#0095a8" />
<rect width="1" height="1" x="4" y="11" fill="#0095a8" />
<rect width="1" height="1" x="5" y="11" fill="#0095a8" />
<rect width="1" height="1" x="6" y="11" fill="#0095a8" />





                <g transform="translate(11, 11)">
                  <text x="0"  y="0" fill="#fdd835"  transform="scale(0.07) translate(2, 12)">G</text>
                </g>
              


<rect width="1" height="1" x="14" y="11" fill="#0095a8" />
<rect width="1" height="1" x="15" y="11" fill="#0095a8" />
<rect width="1" height="1" x="16" y="11" fill="#0095a8" />
<rect width="1" height="1" x="17" y="11" fill="white" />
<rect width="1" height="1" x="18" y="11" fill="#0095a8" />




<rect width="1" height="1" x="2" y="12" fill="#0095a8" />
<rect width="1" height="1" x="3" y="12" fill="#0095a8" />
<rect width="1" height="1" x="4" y="12" fill="#0095a8" />
<rect width="1" height="1" x="5" y="12" fill="#0095a8" />
<rect width="1" height="1" x="6" y="12" fill="#0095a8" />
<rect width="1" height="1" x="7" y="12" fill="#0095a8" />
<rect width="1" height="1" x="8" y="12" fill="#0095a8" />
<rect width="1" height="1" x="9" y="12" fill="#0095a8" />
<rect width="1" height="1" x="10" y="12" fill="#0095a8" />
<rect width="1" height="1" x="11" y="12" fill="white" />
<rect width="1" height="1" x="12" y="12" fill="#0095a8" />
<rect width="1" height="1" x="13" y="12" fill="#0095a8" />
<rect width="1" height="1" x="14" y="12" fill="#0095a8" />
<rect width="1" height="1" x="15" y="12" fill="#0095a8" />
<rect width="1" height="1" x="16" y="12" fill="#0095a8" />
<rect width="1" height="1" x="17" y="12" fill="white" />
<rect width="1" height="1" x="18" y="12" fill="#0095a8" />



                <g transform="translate(0, 13)">
                  <text x="0"  y="0" fill="#f57c00"  transform="scale(0.07) translate(2, 12)">D</text>
                </g>
              

                <g transform="translate(1, 13)">
                  <text x="0"  y="0" fill="#f06292"  transform="scale(0.07) translate(2, 12)">E</text>
                </g>
              
<rect width="1" height="1" x="2" y="13" fill="white" />
<rect width="1" height="1" x="3" y="13" fill="white" />
<rect width="1" height="1" x="4" y="13" fill="#0095a8" />
<rect width="1" height="1" x="5" y="13" fill="#0095a8" />
<rect width="1" height="1" x="6" y="13" fill="#0095a8" />
<rect width="1" height="1" x="7" y="13" fill="#0095a8" />
<rect width="1" height="1" x="8" y="13" fill="#0095a8" />
<rect width="1" height="1" x="9" y="13" fill="#0095a8" />
<rect width="1" height="1" x="10" y="13" fill="#0095a8" />
<rect width="1" height="1" x="11" y="13" fill="white" />
<rect width="1" height="1" x="12" y="13" fill="white" />
<rect width="1" height="1" x="13" y="13" fill="white" />
<rect width="1" height="1" x="14" y="13" fill="#0095a8" />
<rect width="1" height="1" x="15" y="13" fill="#0095a8" />
<rect width="1" height="1" x="16" y="13" fill="#0095a8" />
<rect width="1" height="1" x="17" y="13" fill="white" />
<rect width="1" height="1" x="18" y="13" fill="#0095a8" />




<rect width="1" height="1" x="2" y="14" fill="#0095a8" />
<rect width="1" height="1" x="3" y="14" fill="white" />
<rect width="1" height="1" x="4" y="14" fill="#0095a8" />
<rect width="1" height="1" x="5" y="14" fill="#0095a8" />
<rect width="1" height="1" x="6" y="14" fill="#0095a8" />
<rect width="1" height="1" x="7" y="14" fill="#0095a8" />
<rect width="1" height="1" x="8" y="14" fill="#0095a8" />
<rect width="1" height="1" x="9" y="14" fill="#0095a8" />
<rect width="1" height="1" x="10" y="14" fill="#0095a8" />
<rect width="1" height="1" x="11" y="14" fill="#0095a8" />
<rect width="1" height="1" x="12" y="14" fill="#0095a8" />
<rect width="1" height="1" x="13" y="14" fill="white" />
<rect width="1" height="1" x="14" y="14" fill="#0095a8" />
<rect width="1" height="1" x="15" y="14" fill="#0095a8" />
<rect width="1" height="1" x="16" y="14" fill="#0095a8" />
<rect width="1" height="1" x="17" y="14" fill="white" />
<rect width="1" height="1" x="18" y="14" fill="#0095a8" />



                <g transform="translate(0, 15)">
                  <text x="0"  y="0" fill="#ff6f00"  transform="scale(0.07) translate(2, 12)">F</text>
                </g>
              

                <g transform="translate(1, 15)">
                  <text x="0"  y="0" fill="#fdd835"  transform="scale(0.07) translate(2, 12)">G</text>
                </g>
              
<rect width="1" height="1" x="2" y="15" fill="white" />
<rect width="1" height="1" x="3" y="15" fill="white" />
<rect width="1" height="1" x="4" y="15" fill="#0095a8" />
<rect width="1" height="1" x="5" y="15" fill="#0095a8" />
<rect width="1" height="1" x="6" y="15" fill="#0095a8" />
<rect width="1" height="1" x="7" y="15" fill="#0095a8" />
<rect width="1" height="1" x="8" y="15" fill="#0095a8" />
<rect width="1" height="1" x="9" y="15" fill="#0095a8" />
<rect width="1" height="1" x="10" y="15" fill="#0095a8" />
<rect width="1" height="1" x="11" y="15" fill="#0095a8" />
<rect width="1" height="1" x="12" y="15" fill="#0095a8" />
<rect width="1" height="1" x="13" y="15" fill="white" />
<rect width="1" height="1" x="14" y="15" fill="white" />
<rect width="1" height="1" x="15" y="15" fill="white" />
<rect width="1" height="1" x="16" y="15" fill="white" />
<rect width="1" height="1" x="17" y="15" fill="white" />
<rect width="1" height="1" x="18" y="15" fill="#0095a8" />




<rect width="1" height="1" x="2" y="16" fill="#0095a8" />
<rect width="1" height="1" x="3" y="16" fill="#0095a8" />
<rect width="1" height="1" x="4" y="16" fill="#0095a8" />
<rect width="1" height="1" x="5" y="16" fill="#0095a8" />
<rect width="1" height="1" x="6" y="16" fill="#0095a8" />
<rect width="1" height="1" x="7" y="16" fill="#0095a8" />
<rect width="1" height="1" x="8" y="16" fill="#0095a8" />
<rect width="1" height="1" x="9" y="16" fill="#0095a8" />
<rect width="1" height="1" x="10" y="16" fill="#0095a8" />
<rect width="1" height="1" x="11" y="16" fill="#0095a8" />
<rect width="1" height="1" x="12" y="16" fill="#0095a8" />
<rect width="1" height="1" x="13" y="16" fill="white" />
<rect width="1" height="1" x="14" y="16" fill="#0095a8" />
<rect width="1" height="1" x="15" y="16" fill="#0095a8" />
<rect width="1" height="1" x="16" y="16" fill="#0095a8" />
<rect width="1" height="1" x="17" y="16" fill="#0095a8" />
<rect width="1" height="1" x="18" y="16" fill="#0095a8" />
















                <g transform="translate(13, 17)">
                  <text x="0"  y="0" fill="#fdd835"  transform="scale(0.07) translate(2, 12)">Z</text>
                </g>
              





















                <g transform="translate(13, 18)">
                  <text x="0"  y="0" fill="#fdd835"  transform="scale(0.07) translate(2, 12)">Z</text>
                </g>
              






</g>
<g>


















































<circle cx="9.5" cy="2.5" r="0.05" fill="#424242"   />




















<circle cx="9.5" cy="3.5" r="0.05" fill="#424242"   />
<circle cx="10.5" cy="3.5" r="0.05" fill="#424242"   />
<circle cx="11.5" cy="3.5" r="0.05" fill="#424242"   />
<circle cx="12.5" cy="3.5" r="0.05" fill="#424242"   />
<circle cx="13.5" cy="3.5" r="0.05" fill="#424242"   />
<circle cx="14.5" cy="3.5" r="0.05" fill="#424242"   />
<circle cx="15.5" cy="3.5" r="0.05" fill="#424242"   />
<circle cx="16.5" cy="3.5" r="0.05" fill="#424242"   />
<circle cx="17.5" cy="3.5" r="0.05" fill="#424242"   />












<circle cx="9.5" cy="4.5" r="0.05" fill="#424242"   />







<circle cx="17.5" cy="4.5" r="0.05" fill="#424242"   />












<circle cx="9.5" cy="5.5" r="0.05" fill="#424242"   />







<circle cx="17.5" cy="5.5" r="0.05" fill="#424242"   />












<circle cx="9.5" cy="6.5" r="0.05" fill="#424242"   />







<circle cx="17.5" cy="6.5" r="0.05" fill="#424242"   />




















<circle cx="17.5" cy="7.5" r="0.05" fill="#424242"   />





<circle cx="2.5" cy="8.5" r="0.05" fill="#424242"   />
<circle cx="3.5" cy="8.5" r="0.05" fill="#424242"   />
<circle cx="4.5" cy="8.5" r="0.05" fill="#424242"   />












<circle cx="17.5" cy="8.5" r="0.05" fill="#424242"   />







<circle cx="4.5" cy="9.5" r="0.05" fill="#424242"   />












<circle cx="17.5" cy="9.5" r="0.05" fill="#424242"   />







<circle cx="4.5" cy="10.5" r="0.05" fill="#424242"   />
<circle cx="5.5" cy="10.5" r="0.05" fill="#424242"   />
<circle cx="6.5" cy="10.5" r="0.05" fill="#424242"   />










<circle cx="17.5" cy="10.5" r="0.05" fill="#424242"   />




















<circle cx="17.5" cy="11.5" r="0.05" fill="#424242"   />














<circle cx="11.5" cy="12.5" r="0.05" fill="#424242"   />





<circle cx="17.5" cy="12.5" r="0.05" fill="#424242"   />





<circle cx="2.5" cy="13.5" r="0.05" fill="#424242"   />
<circle cx="3.5" cy="13.5" r="0.05" fill="#424242"   />







<circle cx="11.5" cy="13.5" r="0.05" fill="#424242"   />
<circle cx="12.5" cy="13.5" r="0.05" fill="#424242"   />
<circle cx="13.5" cy="13.5" r="0.05" fill="#424242"   />



<circle cx="17.5" cy="13.5" r="0.05" fill="#424242"   />






<circle cx="3.5" cy="14.5" r="0.05" fill="#424242"   />









<circle cx="13.5" cy="14.5" r="0.05" fill="#424242"   />



<circle cx="17.5" cy="14.5" r="0.05" fill="#424242"   />





<circle cx="2.5" cy="15.5" r="0.05" fill="#424242"   />
<circle cx="3.5" cy="15.5" r="0.05" fill="#424242"   />









<circle cx="13.5" cy="15.5" r="0.05" fill="#424242"   />
<circle cx="14.5" cy="15.5" r="0.05" fill="#424242"   />
<circle cx="15.5" cy="15.5" r="0.05" fill="#424242"   />
<circle cx="16.5" cy="15.5" r="0.05" fill="#424242"   />
<circle cx="17.5" cy="15.5" r="0.05" fill="#424242"   />
















<circle cx="13.5" cy="16.5" r="0.05" fill="#424242"   />
















































</g>
<g>


















































<circle cx="9.5" cy="2.5" r="0.4" fill="#66bb6a"   />



















































































<circle cx="9.5" cy="6.5" r="0.4" fill="#ab47bc"   />


































<circle cx="2.5" cy="8.5" r="0.4" fill="#ab47bc"   />













































<circle cx="6.5" cy="10.5" r="0.4" fill="#ab47bc"   />














































<circle cx="11.5" cy="12.5" r="0.4" fill="#ab47bc"   />











<circle cx="2.5" cy="13.5" r="0.4" fill="#ab47bc"   />









































<circle cx="2.5" cy="15.5" r="0.4" fill="#ab47bc"   />































<circle cx="13.5" cy="16.5" r="0.4" fill="#66bb6a"   />
















































</g>
<g>



















































                <g transform="translate(9, 2)">
                  <text x="0"  y="0" fill="black"  transform="scale(0.07) translate(2, 12)">S</text>
                </g>
              





















                <g transform="translate(9, 3)">
                  <text x="0"  y="0" fill="black"  transform="scale(0.07) translate(2, 12)">0</text>
                </g>
              
































































































































































































































































                <g transform="translate(13, 15)">
                  <text x="0"  y="0" fill="black"  transform="scale(0.07) translate(2, 12)">1</text>
                </g>
              





















                <g transform="translate(13, 16)">
                  <text x="0"  y="0" fill="black"  transform="scale(0.07) translate(2, 12)">E</text>
                </g>
              
















































</g>
      </svg>
    